<?xml version="1.0" encoding="UTF-8"?>
<svg width="808px" height="409px" viewBox="0 0 808 409" version="1.1" xmlns="http://www.w3.org/2000/svg" xmlns:xlink="http://www.w3.org/1999/xlink">
    <g id="Page-1" stroke="none" stroke-width="1" fill="none" fill-rule="evenodd">
        <path d="M164.76593,0 L81.6717183,142.430801 C77.3705172,149.803438 69.4772111,154.336856 60.9416315,154.336856 L23.353954,154.336856 C12.0111405,154.336856 2.50617373,146.468099 1.52100554e-14,135.891532 L9.10323374e-13,30.7666224 C9.09013219e-13,20.0683975 1.11390733,16.1889627 3.20559245,12.2778516 C5.29727756,8.36674045 8.36674045,5.29727756 12.2778516,3.20559245 C16.1889627,1.11390733 20.0683975,7.22223659e-16 30.7666224,-1.24300837e-15 L164.76593,-8.6422825e-16 Z M281,-5.35665696e-16 L470.5,0 C583.442231,-2.07471513e-14 675,91.5577687 675,204.5 C675,317.442231 583.442231,409 470.5,409 L281,409 L168.714659,216.580607 C164.352735,209.105733 164.35306,199.861364 168.715511,192.386796 L281,0 Z M164.76593,409 L30.7666224,409 C20.0683975,409 16.1889627,407.886093 12.2778516,405.794408 C8.36674045,403.702722 5.29727756,400.63326 3.20559245,396.722148 C1.11390733,392.811037 9.09976184e-13,388.931602 9.0866603e-13,378.233378 L9.09167454e-13,273.108468 C2.50617373,262.531901 12.0111405,254.663144 23.353954,254.663144 L60.9416315,254.663144 C69.4772111,254.663144 77.3705172,259.196562 81.6717183,266.569199 L164.76593,409 Z M471.204188,325.314121 C538.215702,325.314121 592.539267,270.959941 592.539267,203.910663 C592.539267,136.861384 538.215702,82.5072046 471.204188,82.5072046 C404.192675,82.5072046 349.86911,136.861384 349.86911,203.910663 C349.86911,270.959941 404.192675,325.314121 471.204188,325.314121 Z M749.52719,408.875616 C749.494283,408.875786 749.461374,408.875888 749.428466,408.875922 C736.173639,408.889812 725.41722,398.155911 725.40333,384.901085 L725.025175,24.0251491 C725.025167,24.0167661 725.025162,24.008383 725.025162,24 C725.025162,10.745166 735.770328,5.98758718e-15 749.025162,0 L784,0 C797.254834,-2.4348735e-15 808,10.745166 808,24 L808,384.697366 C808,397.90385 797.330182,408.628882 784.123873,408.697046 L749.52719,408.875616 Z" id="Combined-Shape" fill="#4F46E5"></path>
    </g>
</svg>